# xmcd CD database file
#
# Track frame offsets:
#	150
#	19234
#	36579
#	52018
#	66781
#	80476
#	93415
#	115666
#	130141
#	146503
#	164949
#
# Disc length: 2401 seconds
#
# Revision: 0
# Processed by: cddbd v1.5.2PL0 Copyright (c) Steve Scherf et al.
# Submitted via: CDex 1.51
#
DISCID=9f095f0b
DTITLE=Roger Hubbard - Out Of My Hands
DYEAR=2007
DGENRE=Blues
TTITLE0=Lodestone Rainbow
TTITLE1=Hesitating
TTITLE2=Stuck
TTITLE3=Too Little Too Late
TTITLE4=Lay Down Lady
TTITLE5=Tin Star
TTITLE6=All Around The World
TTITLE7=Out Of My Hands
TTITLE8=Turnaround Day
TTITLE9=Sorrow Inside
TTITLE10=Shortcut
EXTD=YEAR: 2007
EXTT0=
EXTT1=
EXTT2=
EXTT3=
EXTT4=
EXTT5=
EXTT6=
EXTT7=
EXTT8=
EXTT9=
EXTT10=
PLAYORDER=
